<svg width="520" height="867" viewBox="0 0 520 867" fill="none" xmlns="http://www.w3.org/2000/svg">
<rect width="520" height="867" fill="#F56E70"/>
<path d="M408 275.651V342.259C407.998 342.875 407.753 343.465 407.318 343.9C406.883 344.335 406.294 344.58 405.678 344.582H404.026V691.569C404.026 701.171 400.212 710.379 393.425 717.169C386.638 723.958 377.433 727.773 367.835 727.773H151.101C146.349 727.773 141.643 726.836 137.253 725.016C132.863 723.197 128.874 720.53 125.514 717.168C122.155 713.806 119.49 709.815 117.672 705.422C115.854 701.03 114.919 696.323 114.92 691.569V356.751H113.723C113.289 356.752 112.873 356.581 112.565 356.275C112.257 355.968 112.083 355.553 112.081 355.119V317.21C112.081 316.995 112.123 316.781 112.206 316.582C112.289 316.382 112.409 316.201 112.562 316.048C112.714 315.896 112.896 315.775 113.095 315.692C113.294 315.61 113.508 315.567 113.723 315.567H114.92V301.288H113.713C113.258 301.287 112.821 301.104 112.5 300.781C112.179 300.458 111.999 300.02 112 299.564V262.173C112.001 261.719 112.182 261.284 112.503 260.962C112.824 260.641 113.259 260.46 113.713 260.459H114.92V240.967H113.693C113.493 240.968 113.295 240.929 113.111 240.852C112.926 240.776 112.758 240.664 112.617 240.523C112.476 240.381 112.364 240.213 112.287 240.029C112.211 239.844 112.172 239.646 112.172 239.446V219.042C112.171 218.637 112.331 218.249 112.616 217.962C112.901 217.674 113.288 217.512 113.693 217.51H114.92V176.195C114.92 166.595 118.732 157.389 125.517 150.602C132.303 143.814 141.505 140 151.101 140H367.834C377.431 140 386.635 143.813 393.422 150.6C400.209 157.388 404.023 166.594 404.026 176.195V273.329H405.678C406.294 273.33 406.883 273.575 407.318 274.011C407.753 274.446 407.998 275.035 408 275.651V275.651Z" fill="#22212F"/>
<path d="M269.909 158.565H234.691C233.268 158.565 232.115 159.72 232.115 161.143V164.188C232.115 165.612 233.268 166.766 234.691 166.766H269.909C271.333 166.766 272.486 165.612 272.486 164.188V161.143C272.486 159.72 271.333 158.565 269.909 158.565Z" fill="#E6E8EC"/>
<path d="M283.24 167.317C285.808 167.317 287.89 165.235 287.89 162.666C287.89 160.097 285.808 158.014 283.24 158.014C280.672 158.014 278.591 160.097 278.591 162.666C278.591 165.235 280.672 167.317 283.24 167.317Z" fill="#E6E8EC"/>
<path d="M386.695 183.354V694.57C386.692 700.66 384.272 706.5 379.966 710.806C375.66 715.111 369.821 717.53 363.733 717.53H156.266C153.25 717.535 150.262 716.945 147.475 715.793C144.687 714.641 142.154 712.951 140.021 710.818C137.888 708.685 136.197 706.152 135.044 703.363C133.891 700.575 133.3 697.587 133.304 694.57V183.354C133.304 180.337 133.898 177.35 135.052 174.563C136.205 171.776 137.897 169.244 140.029 167.111C142.161 164.978 144.693 163.286 147.479 162.132C150.264 160.977 153.25 160.383 156.266 160.384H187.317V164.369C187.318 169.385 189.31 174.196 192.855 177.743C196.401 181.29 201.21 183.283 206.224 183.283H311.737C316.752 183.283 321.561 181.29 325.106 177.743C328.652 174.196 330.644 169.385 330.644 164.369V160.384H363.733C366.749 160.383 369.735 160.976 372.522 162.13C375.308 163.284 377.84 164.976 379.972 167.109C382.104 169.242 383.796 171.775 384.949 174.562C386.103 177.35 386.696 180.337 386.695 183.354V183.354Z" fill="white"/>
<path d="M365.854 496.934H154.99V524.316H365.854V496.934Z" fill="#E6E6E6"/>
<path d="M365.854 545.613H154.99V572.994H365.854V545.613Z" fill="#E6E6E6"/>
<path d="M365.854 594.292H154.99V621.673H365.854V594.292Z" fill="#E6E6E6"/>
<path d="M342.538 252.527C353.736 252.527 362.813 243.446 362.813 232.244C362.813 221.043 353.736 211.962 342.538 211.962C331.34 211.962 322.263 221.043 322.263 232.244C322.263 243.446 331.34 252.527 342.538 252.527Z" fill="#384983"/>
<path d="M365.431 300.192H154.568V440.143H365.431V300.192Z" fill="#E6E6E6"/>
<path d="M238.534 378.88C244.691 401.647 265.779 415.747 265.779 415.747C265.779 415.747 276.885 392.935 270.729 370.167C264.572 347.4 243.483 333.299 243.483 333.299C243.483 333.299 232.377 356.112 238.534 378.88Z" fill="#22212F"/>
<path d="M247.581 373.987C264.475 390.439 266.538 415.729 266.538 415.729C266.538 415.729 241.211 414.346 224.317 397.894C207.422 381.442 205.359 356.151 205.359 356.151C205.359 356.151 230.686 357.535 247.581 373.987Z" fill="#F7E8A5"/>
<path d="M294.544 378.88C288.387 401.647 267.298 415.747 267.298 415.747C267.298 415.747 256.192 392.935 262.349 370.167C268.506 347.4 289.594 333.299 289.594 333.299C289.594 333.299 300.7 356.112 294.544 378.88Z" fill="#22212F"/>
<path d="M285.497 373.987C268.603 390.439 266.539 415.729 266.539 415.729C266.539 415.729 291.867 414.346 308.761 397.894C325.655 381.442 327.719 356.151 327.719 356.151C327.719 356.151 302.391 357.535 285.497 373.987Z" fill="#F7E8A5"/>
</svg>
