<svg width="200" height="200" viewBox="0 0 200 200" fill="none" xmlns="http://www.w3.org/2000/svg">
<path fill-rule="evenodd" clip-rule="evenodd" d="M68.6791 0.000753465L130.602 0C154.733 0 163.484 2.51257 172.306 7.23066C181.128 11.9487 188.051 18.8723 192.769 27.6944L193.05 28.2238C197.587 36.8726 200 45.7497 200 69.3984V130.602L199.997 132.031C199.899 155.083 197.393 163.66 192.769 172.306C188.051 181.128 181.128 188.051 172.306 192.769L171.776 193.05C163.127 197.587 154.25 200 130.602 200H69.3984L67.9688 199.997C44.917 199.899 36.34 197.393 27.6944 192.769C18.8723 188.051 11.9487 181.128 7.23066 172.306L6.95022 171.776C2.45937 163.216 0.0494676 154.431 0.000753465 131.321L0 69.3984C0 45.2671 2.51257 36.5165 7.23066 27.6944C11.9487 18.8723 18.8723 11.9487 27.6944 7.23066L28.2238 6.95022C36.7844 2.45937 45.5685 0.0494676 68.6791 0.000753465Z" fill="#22212F"/>
<path d="M114.603 63.9298C114.603 70.7011 120.138 76.1904 126.966 76.1904C133.793 76.1904 139.328 70.7011 139.328 63.9298C139.328 57.1585 133.793 51.6693 126.966 51.6693C120.138 51.6693 114.603 57.1585 114.603 63.9298Z" fill="white"/>
<path d="M114.603 135.819C114.603 142.591 120.138 148.08 126.966 148.08C133.793 148.08 139.328 142.591 139.328 135.819C139.328 129.048 133.793 123.559 126.966 123.559C120.138 123.559 114.603 129.048 114.603 135.819Z" fill="white"/>
<path d="M60.1578 98.9019C60.1578 90.5332 61.3864 82.5919 63.8436 75.0778C66.3008 67.5638 69.7017 61.1181 74.0463 55.7408C78.3553 50.3278 83.0204 46.6599 88.0416 44.7368L91.4603 53.6041C86.5103 57.3077 82.6821 63.0055 79.9756 70.6976C77.2692 78.3897 75.8625 87.2392 75.7557 97.246V100.504C75.7557 111.223 77.1267 120.518 79.8688 128.388C82.5753 136.258 86.4391 142.027 91.4603 145.695L88.0416 154.563C83.056 152.604 78.4265 148.972 74.1531 143.666C69.8442 138.395 66.4611 132.038 64.0039 124.596C61.5111 117.188 60.2291 109.407 60.1578 101.252L60.1578 98.9019Z" fill="white"/>
</svg>
