<svg width="3101" height="3103" viewBox="0 0 3101 3103" fill="none" xmlns="http://www.w3.org/2000/svg">
<path fill-rule="evenodd" clip-rule="evenodd" d="M2614.88 845.232C2299.57 337.576 2299.57 0 1495.93 0C692.293 0 -771.664 1994.72 498.226 2766.62C1768.11 3538.53 3100.32 2794.62 3100.32 2308.42C3100.32 1822.22 2930.18 1352.89 2614.88 845.232Z" fill="#F7E8A5"/>
<path fill-rule="evenodd" clip-rule="evenodd" d="M2387.54 1440.26C2372.95 1200.4 2295.28 928.466 2066.7 810.7C1562.77 608.03 900.208 1118.41 865.13 1639.8C852.901 1818.28 951.786 2013.31 1132.49 2062.93C1172.67 2116.27 1233.43 2148.84 1293.4 2177.12C2038 2466 2469.09 2246.6 2387.54 1440.26Z" fill="#DE946B"/>
<path d="M2470.3 1081.9C2498.35 1151.08 2525.02 1220.8 2550.26 1291.06C2600.55 1431.15 2647.77 1573.67 2684.13 1718.12C2701.1 1785.41 2712.34 1858.29 2689.75 1925.7C2674.28 1971.82 2646.58 2011.81 2615.33 2048.55C2583.89 2085.57 2548.65 2119.04 2515.86 2154.79C2487.12 2186.18 2457.53 2220.92 2443.06 2261.68C2402.5 2375.79 2504.51 2464.63 2556.3 2554.79C2620.87 2667.15 2636.11 2810.95 2577.51 2928.95C2527.6 3029.48 2449.71 3114.7 2333.89 3100.93C2320.84 3099.39 2240.31 3057.74 2210.98 3035.57C2205.87 3031.71 2200.86 3027.78 2195.86 3023.92C2182.78 3013.74 2187.86 2990.57 2201.06 2983.39C2253.43 2955.09 2262.51 2900.03 2231.92 2851.01C2198.52 2797.53 2138.8 2766.76 2090.66 2728.66C2046.98 2694.07 2011.12 2650.23 1987.61 2599.56C1948.51 2515.34 1971.99 2368.34 2002 2281.85C2132.45 2228.79 2216.53 2113.38 2247.58 1978.3C2281.25 1831.8 2265.4 1676.82 2259.16 1528.25C2252.93 1379.79 2263.63 1262.52 2181.74 1131.65C2123.25 1038.25 1981.52 999.795 1918.04 986.848C1780.2 1159.78 1569.49 1171.4 1453.59 1271.24C1348.88 1361.39 1259.45 1477.77 1279.54 1624.07C1282 1641.93 1263.76 1654.42 1249.14 1641.81C1246.91 1639.88 1244.72 1637.99 1242.48 1636.1C1217.86 1614.86 1192.92 1593.99 1167.87 1573.25C1159.98 1566.73 1151.83 1560.29 1143.67 1553.78C1118.93 1550.38 1093.45 1552.54 1069.67 1559.75C1068.94 1570.9 1068.17 1582 1067.32 1593.11C1065.55 1616.59 1061.17 1661.25 1058.74 1684.69C1054.82 1721.21 1050.24 1757.73 1045.31 1794.13C1042.62 1813.91 1039.89 1833.65 1036.92 1853.36C1053.78 1859.84 1069.79 1858.56 1089.26 1855.17C1102.26 1852.89 1112.5 1852.01 1124.43 1852.01C1126.66 1849.73 1130.66 1850.27 1132.24 1853.01C1150.63 1884.9 1162.83 1920.34 1181.26 1952.46C1199.39 1984.04 1218.43 2015.04 1239.52 2044.74C1261.26 2075.35 1285.74 2103.93 1311.63 2131.11C1314.75 2134.35 1317.87 2137.59 1321.02 2140.79C1329.22 2147.23 1336.88 2154.83 1344.03 2163C1345.84 2164.74 1347.69 2166.44 1349.54 2168.09C1363.85 2181.05 1375.93 2191.04 1381.78 2210.09C1382.51 2212.48 1382.59 2215.02 1382.13 2217.57C1399.98 2247.88 1413.8 2280.11 1424.34 2313.66C1444.73 2378.41 1452.74 2446.74 1460.4 2513.95C1470.17 2599.9 1479.79 2685.89 1489.79 2771.85C1498.88 2849.66 1507.38 2929.37 1472.02 3002.21C1457.43 3032.21 1433.46 3061.52 1403.98 3077.79C1386.05 3087.7 1356.39 3090.25 1338.3 3078.14C1298.43 3091.64 1248.33 3076.02 1210.12 3057.32C1153.71 3029.74 1102.15 2990.64 1053.01 2951.89C1048.85 2948.61 1044.7 2945.3 1040.58 2941.98C960.273 2940.13 819.475 2911.25 760.409 2854.95C741.13 2836.59 724.237 2815.54 710.385 2792.67C704.986 2792.13 699.61 2791.44 694.242 2790.69C589.689 2784.09 496.887 2714.83 444.5 2621.82C384.287 2514.92 386.48 2388.07 432.025 2276.04C456.179 2216.64 488.625 2162.76 527.763 2112.1C567.147 2061.11 612.738 2017.4 658.329 1972.2C673.671 1956.99 679.467 1942.34 691.5 1926C672.399 1893.23 663.485 1858.39 650.183 1821.67C548.404 1540.73 644.026 1217.14 797.249 974.011C866.648 863.895 1069.63 618.808 1236.14 556.505C1338.99 518.019 1524 505.989 1622.78 548.638C1813.26 498.586 2181.74 498.586 2384.38 881.653C2418.3 945.79 2442.98 1014.57 2470.3 1081.9Z" fill="#22212F"/>
</svg>
